<?xml version="1.0" standalone="no"?>
<!DOCTYPE svg PUBLIC "-//W3C//DTD SVG 1.1//EN" "http://www.w3.org/Graphics/SVG/1.1/DTD/svg11.dtd">
<svg xmlns="http://www.w3.org/2000/svg">
<metadata>Copyright (C) 2017 by original authors @ fontello.com</metadata>
<defs>
<font id="bx-icons" horiz-adv-x="1000" >
<font-face font-family="bx-icons" font-weight="400" font-stretch="normal" units-per-em="1000" ascent="850" descent="-150" />
<missing-glyph horiz-adv-x="1000" />
<glyph glyph-name="arrow-right" unicode="&#xe800;" d="M765 301l-430-431c-28-27-72-27-99 0-28 28-28 72 0 99l380 381-380 381c-28 27-28 71 0 99 27 27 71 27 99 0l430-430c13-14 20-32 20-50 0-18-7-36-20-49z" horiz-adv-x="1000" />

<glyph glyph-name="check" unicode="&#xe801;" d="M971 543l-528-527c-39-40-102-40-141 0l-273 272c-39 39-39 102 0 141 39 39 103 39 142 0l201-201 457 457c39 39 103 39 142 0 39-40 39-103 0-142z" horiz-adv-x="1000" />

<glyph glyph-name="delete-circle" unicode="&#xe802;" d="M857 850c-275 0-500-224-500-500s224-500 500-500 500 224 500 500-224 500-500 500z m0-962c-254 0-461 208-461 462 0 255 207 462 461 462 255 0 462-207 462-462 0-254-207-462-462-462z m187 649c-8 7-20 7-27 0l-160-160-159 160c-8 7-20 7-27 0-8-8-8-20 0-27l159-160-159-159c-8-8-8-20 0-28 3-3 8-5 13-5 5 0 10 2 14 5l159 160 160-160c3-3 8-5 13-5s10 2 14 5c7 8 7 20 0 28l-160 159 160 160c7 7 7 19 0 27z" horiz-adv-x="1714" />

<glyph glyph-name="remove" unicode="&#xe803;" d="M857-14c10 0 17 7 17 17v559c0 9-7 17-17 17s-17-8-17-17v-559c0-10 8-17 17-17z m-169 0c9 0 17 7 17 17v559c0 9-8 17-17 17-10 0-17-8-17-17v-559c0-10 7-17 17-17z m339 0c9 0 17 7 17 17v559c0 9-8 17-17 17s-17-8-17-17v-559c0-10 7-17 17-17z m220 762h-238c-2 22-8 57-31 80-14 15-32 22-53 22h-170c-21 0-39-7-53-22-22-23-29-58-31-80h-204c-9 0-17-7-17-17 0-9 8-17 17-17h35l32-780c1-29 19-84 84-84h479c64 0 82 55 83 84l32 780h35c9 0 17 8 17 17 0 10-8 17-17 17z m-520 57c7 7 17 11 28 11h170c12 0 21-4 29-11 14-14 19-39 21-57h-269c1 18 7 43 21 57z m419-870c0-5-2-51-49-51h-479c-47 0-50 46-50 51l-32 779h642l-32-779z" horiz-adv-x="1714" />

<glyph glyph-name="edit" unicode="&#xe804;" d="M850 707v0l-5 5c-2 2-5 4-7 6-1 1-3 2-4 3-5 5-10 9-15 14-1 0-2 1-2 2-6 4-11 9-17 13-1 0-1 1-2 1-6 5-12 9-18 13 0 0-1 1-1 1-7 4-13 8-19 12-1 0-1 1-1 1-7 4-13 8-20 11-1 0-1 1-1 1-7 3-14 7-20 10-1 0-2 1-2 1-7 3-13 6-20 9-1 0-2 1-3 1-6 3-12 5-19 8 0 0 0 0-1 0 0 0 0 0 0 0-1 1-2 1-3 1-6 2-12 4-18 6-2 1-4 1-5 2-6 2-12 3-18 5-2 1-4 1-6 2-6 1-11 2-17 4-2 0-5 1-7 1-6 1-11 2-16 3-3 1-6 1-9 1-5 1-10 2-15 2-3 1-6 1-9 2-6 0-11 0-17 1-3 0-5 0-8 0-8 1-17 1-25 1s-17 0-25-1c-3 0-5 0-8 0-5-1-11-1-17-1-3-1-6-1-9-2-5 0-10-1-15-1-3-1-6-1-9-2-5-1-10-2-16-3-2 0-5-1-7-1-6-2-11-3-17-4-2-1-4-1-6-2-6-2-12-3-18-5-1 0-3-1-5-2-6-2-12-4-18-6-1 0-2 0-3-1 0 0 0 0 0 0-1 0-1 0-1 0-7-3-13-5-19-8-1 0-2-1-3-1-7-3-13-6-20-9 0 0-1-1-2-1-6-3-13-6-19-10-1 0-1-1-2-1-6-3-13-7-19-11-1 0-1-1-2-1-6-4-12-8-19-12 0 0-1-1-1-1-6-4-12-8-18-13-1 0-1-1-2-1-6-4-11-9-16-13-1-1-2-2-3-2-5-5-10-9-15-14-1-1-3-1-4-2-2-3-4-5-7-7l-5-5v0c-92-91-150-217-150-357 0-276 224-500 500-500s500 224 500 500c0 140-57 266-150 357z m-350-723l0 0h0l0 0z m-133 192c34 37 82 57 133 57s99-20 133-57l-133-167-133 167z m287 26c-41 41-96 65-154 65s-113-24-154-65l-156 195 143 115 151-120 0-2 5-2 9-7 2 1 3-1 8 7 6 3v1l150 120 143-115-156-195z m-468 493c0 0 1 0 1 0 27 25 58 47 91 65 0 0 0 0 0 1 6 3 13 6 19 9 1 1 1 1 2 1 6 3 12 6 18 8v-238l-134-106v257c1 1 2 2 3 3z m178 101c5 2 10 3 16 5 2 0 4 1 6 2 5 1 10 2 15 3 3 1 5 1 8 2 5 1 9 1 14 2 3 1 6 1 8 2 5 0 10 1 15 1 2 1 5 1 8 1 5 1 10 1 15 2 3 0 5 0 8 0 2 0 4 0 6 0v-381l-133 106v251c3 1 6 2 9 3 1 0 3 1 5 1z m167 20c5-1 10-1 15-2 3 0 6 0 8-1 5 0 10-1 15-1 3-1 5-1 8-2 5-1 10-1 14-2 3-1 5-1 8-2 5-1 10-2 15-3 2-1 4-2 6-2 6-2 11-3 16-5 2 0 4-1 6-1 2-1 5-2 8-3v-251l-133-106v381c2 0 4 0 6 0 3 0 5 0 8 0z m172-46c6-3 13-6 19-9 0-1 0-1 1-1 32-18 63-40 91-65 0 0 0 0 0 0 1-1 2-2 3-3v-257l-134 106v238c6-2 12-5 18-8 1 0 1 0 2-1z m-203-887c-257 0-467 210-467 467 0 118 45 226 117 308v-249-15l334-418 0-3 0 0 0 0 5-3 8-6 1 0 0 0 2 1 3-1 0 0 0 0 8 6 2 2 4 1v0 4l333 417v15 249c73-82 117-190 117-308 0-257-210-467-467-467z" horiz-adv-x="1000" />

<glyph glyph-name="like" unicode="&#xe805;" d="M1356 538c-15 160-129 277-271 277-95 0-182-51-231-133-48 83-131 133-225 133-142 0-256-117-270-277-1-7-6-45 8-106 21-88 69-167 139-231l348-316 355 316c69 64 117 143 138 231 14 61 10 99 9 106z m-46-97c-19-80-63-153-127-211l-329-293-322 293c-64 58-108 131-127 211-14 58-8 90-8 91l0 2c13 140 110 242 232 242 91 0 170-55 208-144l17-42 18 42c37 88 121 144 213 144 122 0 220-102 233-244 0-1 5-33-8-91z" horiz-adv-x="1714" />

<glyph glyph-name="minus" unicode="&#xe806;" d="M857 850c-275 0-500-224-500-500s224-500 500-500 500 224 500 500-224 500-500 500z m0-962c-254 0-461 208-461 462 0 255 207 462 461 462 255 0 462-207 462-462 0-254-207-462-462-462z m250 481h-500c-10 0-19-8-19-19 0-11 9-19 19-19h500c11 0 19 8 19 19 0 11-8 19-19 19z" horiz-adv-x="1714" />

<glyph glyph-name="arrow-top" unicode="&#xe807;" d="M550 615l430-430c27-28 27-72 0-99-28-28-72-28-99 0l-381 380-380-380c-28-28-72-28-99 0-28 27-28 71 0 99l430 430c13 13 31 20 49 20 18 0 36-7 50-20z" horiz-adv-x="1000" />

<glyph glyph-name="image" unicode="&#xe808;" d="M1340 747h-966c-9 0-17-8-17-18v-758c0-10 8-18 17-18h966c9 0 17 8 17 18v758c0 10-8 18-17 18z m-17-759h-931v724h931v-724z m-690 377c53 0 96 43 96 96 0 53-43 96-96 96-53 0-96-43-96-96 0-53 43-96 96-96z m0 157c34 0 62-27 62-61s-28-62-62-62-61 28-61 62c0 34 27 61 61 61z m-155-465c4 0 8 1 11 4l282 248 177-178c7-6 18-6 25 0 6 7 6 18 0 25l-83 83 158 173 194-178c7-7 18-6 24 1 7 7 6 18-1 24l-207 190c-3 3-7 5-12 4-4 0-9-2-12-5l-169-185-82 82c-6 6-16 6-23 0l-294-258c-7-6-7-17-1-24 3-4 8-6 13-6z" horiz-adv-x="1714" />

<glyph glyph-name="plus" unicode="&#xe809;" d="M857 850c-275 0-500-224-500-500s224-500 500-500 500 224 500 500-224 500-500 500z m0-962c-254 0-461 208-461 462 0 255 207 462 461 462 255 0 462-207 462-462 0-254-207-462-462-462z m241 481h-222v212c0 10-8 19-19 19s-19-9-19-19v-212h-221c-11 0-19-8-19-19 0-11 8-19 19-19h221v-231c0-11 9-19 19-19s19 8 19 19v231h222c10 0 19 8 19 19 0 11-9 19-19 19z" horiz-adv-x="1714" />

<glyph glyph-name="profile" unicode="&#xe80a;" d="M917 94l-159 79c-15 8-25 23-25 40v56c4 5 8 10 12 16 21 29 38 61 50 96 23 11 38 34 38 61v66c0 16-6 32-16 44v89c1 9 4 64-35 109-34 39-90 58-165 58s-131-19-165-58c-24-28-32-58-35-81-28 15-62 23-100 23-173 0-184-148-184-150v-77c-10-11-16-25-16-38v-58c0-18 8-35 22-46 13-52 47-91 60-105v-46c0-13-7-25-19-31l-111-70c-43-23-69-68-69-116v-63h233 34 733v67c0 57-32 109-83 135z m-684-132v-37h-200v30c0 36 20 69 53 87l111 70c22 12 36 35 36 60v60l-6 5c0 1-44 42-57 99l-2 7-6 4c-7 5-12 13-12 22v58c0 6 4 13 11 19l6 5 0 90c0 5 9 117 150 117 40 0 73-9 100-27v-79c-11-12-17-28-17-44v-66c0-5 1-10 2-15 0-2 1-4 2-6 1-3 1-5 3-8 0 0 0 0 0 0 4-9 10-17 18-23 0 0 0-1 0-1 1-4 2-8 3-11l2-5c0 0 0-1 1-2 0-2 1-4 1-5 1-3 2-6 4-10 0-1 1-2 1-4 2-3 3-6 4-10 1 0 1-1 1-2l1-2c1-1 1-2 2-3 1-4 3-7 5-10 0-1 0-1 0-2 1-2 2-4 3-6 2-4 4-7 6-10 1-1 1-3 2-4 3-4 5-8 7-12 1 0 1-1 2-2 4-6 7-11 10-15 1-1 2-2 2-3 1-1 1-1 1-2v-55c0-16-8-31-23-39l-44-24-7 1-3-6-94-52c-49-26-79-77-79-132z m734-37h-700v37c0 43 23 83 61 103l148 81c25 14 41 40 41 68v67 0l-4 4 0 1c0 0-1 1-3 3 0 0 0 0 0 1-1 1-2 2-3 4 0 0 0 0 0 0-3 3-6 8-9 13-1 0-1 0-1 1-1 2-3 5-5 8 0 0 0 0 0 1-4 6-8 13-12 21 0 0 0 0 0 0-2 4-4 9-6 13l0 0c-1 1-1 2-1 2h0c-1 2-2 5-3 7 0 1-1 1-1 2-1 2-2 5-3 7-1 5-3 9-4 14l-1 3c0 1-1 1-1 1-1 6-3 11-4 16l-1 7-6 4c-10 6-16 16-16 28v66c0 10 4 18 12 25l5 5v104 6l0 0c-1 12 0 49 27 80 27 31 74 47 140 47 65 0 112-16 139-47 33-37 28-84 28-84l-1-106 6-5c7-7 11-15 11-25v-66c0-15-9-28-24-32l-8-2-3-9c-11-34-27-66-47-95-5-7-10-13-14-18l-4-5v-68c0-30 16-56 43-70l159-79c40-20 65-60 65-105v-34z" horiz-adv-x="1000" />

<glyph glyph-name="search" unicode="&#xe80b;" d="M976-118l-280 292c71 72 116 170 116 280 0 218-178 396-397 396s-396-178-396-396 177-397 396-397c96 0 184 34 253 91l281-292c4-4 9-6 14-6 4 0 9 2 13 5 7 7 7 19 0 27z m-561 213c-198 0-359 161-359 359s161 358 359 358 359-161 359-358-161-359-359-359z" horiz-adv-x="1000" />

<glyph glyph-name="check-circle" unicode="&#xe80c;" d="M857 850c-275 0-500-224-500-500s224-500 500-500 500 224 500 500-224 500-500 500z m0-962c-254 0-461 208-461 462 0 255 207 462 461 462 255 0 462-207 462-462 0-254-207-462-462-462z m236 667l-296-332-178 142c-8 7-20 5-27-3-6-8-5-20 3-27l192-154c4-3 8-4 12-4 6 0 11 2 15 6l308 347c7 8 6 20-2 27-8 7-20 6-27-2z" horiz-adv-x="1714" />

<glyph glyph-name="time" unicode="&#xe80d;" d="M857 850c-276 0-500-224-500-500 0-276 224-500 500-500 276 0 500 224 500 500 0 276-224 500-500 500z m0-967c-257 0-466 210-466 467 0 257 209 467 466 467 258 0 467-210 467-467 0-257-209-467-467-467z m0 867c-9 0-16-7-16-17v-383h-250c-10 0-17-7-17-17 0-9 7-16 17-16h266c9 0 17 7 17 16v400c0 10-8 17-17 17z" horiz-adv-x="1714" />

<glyph glyph-name="video" unicode="&#xe80e;" d="M987 365l-190 120c-5 4-12 4-17 1-6-3-9-9-9-15v-242c0-6 3-12 9-15 3-1 5-2 8-2 3 0 7 1 9 3l190 120c5 4 8 9 8 15 0 6-3 11-8 15z m-182-104v178l141-89-141-89z m535 486h-172-621-173c-9 0-17-8-17-18v-189-190-190-189c0-10 8-18 17-18h173 621 172c9 0 17 8 17 18v189 190 190 189c0 10-8 18-17 18z m-810-380h-138v155h138v-155z m-138-34h138v-155h-138v155z m172-173v190 190 172h586v-172-190-190-172h-586v172z m759 207h-138v155h138v-155z m-138-34h138v-155h-138v155z m138 379v-155h-138v155h138z m-931 0h138v-155h-138v155z m0-724v155h138v-155h-138z m931 0h-138v155h138v-155z" horiz-adv-x="1714" />

<glyph glyph-name="arrow-down" unicode="&#xe80f;" d="M500 65c-18 0-36 7-49 21l-430 430c-28 27-28 71 0 99 27 27 71 27 99 0l380-381 381 381c27 27 71 27 99 0 27-28 27-72 0-99l-430-430c-14-14-32-21-50-21z" horiz-adv-x="1000" />

<glyph glyph-name="arrow-left" unicode="&#xe810;" d="M215 350c0 18 7 36 21 50l430 430c27 27 71 27 99 0 27-28 27-72 0-99l-381-381 381-381c27-27 27-71 0-99-28-27-72-27-99 0l-430 431c-14 13-21 31-21 49z" horiz-adv-x="1000" />

<glyph glyph-name="logo-filled" unicode="&#xe811;" d="M1010-28c-16-4-31-5-46-2-14 2-28 7-39 15-12 8-21 18-28 31-6 13-10 28-10 44v580c0 17 4 31 10 44 7 13 16 23 28 31 11 8 25 13 39 15 15 3 30 2 46-2l591-148c6-1 12-4 17-9 4-4 9-10 12-17 4-6 7-14 9-22 2-8 3-17 3-26v-312c0-9-1-18-3-26s-5-16-9-22c-3-7-8-13-12-17-5-5-11-8-17-9l-591-148m-306 0c16-4 32-5 46-2 15 2 28 7 39 15 12 8 22 18 28 31 7 13 11 28 11 44l0 580c0 17-4 31-11 44-6 13-16 23-28 31-11 8-24 13-39 15-14 3-30 2-46-2l-591-148c-6-1-11-4-16-9-5-4-9-10-13-17-4-6-7-14-8-22-2-8-4-17-4-26v-312c0-9 2-18 4-26s4-16 8-22c4-7 8-13 13-17 5-5 10-8 16-9l591-148" horiz-adv-x="1714" />

<glyph glyph-name="logo-outline" unicode="&#xe812;" d="M1000-37c-7 0-13 0-19 1-18 3-33 9-47 19-15 9-26 22-34 37-8 16-12 34-12 53v554c0 19 4 37 12 53 8 15 19 28 34 37 14 10 29 16 47 19 16 2 34 1 52-3l565-141c9-2 18-7 25-14 7-6 12-14 17-22 5-8 8-17 10-27 3-9 4-19 4-29v-299c0-10-1-20-4-30-2-10-5-18-10-27-5-8-10-16-17-22-7-7-16-12-25-14l-565-141c-11-3-22-4-33-4z m0 729c-5 0-9 0-13-1-10-1-20-5-28-10-8-6-15-13-19-22-5-9-8-20-8-32v-554c0-12 3-22 8-32 4-9 11-16 19-21 8-6 18-10 28-11 11-2 23-1 35 2l565 141c2 0 4 1 6 3 3 3 6 6 8 11 2 4 4 10 6 16 1 6 2 12 2 19v299c0 6-1 12-2 19-2 5-4 11-6 16-2 4-5 8-8 10-2 2-4 3-6 4l-565 141c-7 1-15 2-22 2z m-285-729c0 0 0 0 0 0-11 0-22 1-34 4l-565 141c-9 3-17 7-25 14-6 6-12 14-17 22-4 8-7 17-10 27-2 10-3 20-3 30v299c0 10 1 20 3 29 2 10 6 19 10 27 5 9 11 16 17 22 8 7 16 12 25 14l565 141c18 4 36 5 53 3 17-3 33-9 47-19 14-9 25-22 33-37 9-16 13-34 13-53l0-554c0-19-4-37-13-53-8-15-19-28-33-37-14-10-30-16-47-19-6-1-13-1-19-1z m0 729c-8 0-15-1-23-2l-565-141c-2-1-4-2-6-4-2-2-5-6-7-10-3-5-5-11-6-16-2-7-3-13-3-19v-299c0-7 1-13 3-19 1-6 3-12 6-16 2-5 5-8 7-11 2-2 4-3 6-3l565-141c8-2 15-3 23-3 0 0 0 0 0 0 4 0 8 0 12 1 11 1 20 5 29 11 8 5 14 12 19 21 5 10 7 20 7 32l0 554c0 12-2 23-7 32-5 9-11 16-20 22-8 5-17 9-28 10-4 1-8 1-12 1z" horiz-adv-x="1714" />

<glyph glyph-name="logo-brand" unicode="&#xe813;" d="M289 498c6 1 12 2 18 1 5-1 11-3 15-6 5-3 8-7 11-12 3-5 4-11 4-18v-226c0-7-1-13-4-17-3-5-6-10-11-13-4-3-10-5-15-6-6 0-12 0-18 1l-231 58c-3 1-5 2-7 4-1 1-3 4-5 6-1 3-2 6-3 9-1 3-1 6-1 10v122c0 4 0 7 1 10 1 3 2 6 3 9 2 2 4 5 5 6 2 2 4 4 7 4l231 58m119 0c-6 1-12 2-18 1-5-1-11-3-15-6-4-3-8-7-11-12-2-5-4-11-4-18v-226c0-7 2-13 4-17 3-5 7-10 11-13 4-3 10-5 15-6 6 0 12 0 18 1l231 58c3 1 5 2 7 4 2 1 3 4 5 6 1 3 2 6 3 9 1 3 1 6 1 10v122c0 4 0 7-1 10-1 3-2 6-3 9-2 2-3 5-5 6-2 2-4 4-7 4l-231 58m465-197c10 7 15 17 15 30 0 7-2 13-5 18-3 5-8 9-16 12 9 6 14 14 14 25 0 6-1 12-4 16s-6 9-11 12c-5 2-11 4-18 6-7 1-14 1-22 1-6 0-13 0-20-1-7 0-13-1-19-2v-123c8-2 15-3 22-3 7-1 14-1 21-1 19 0 33 3 43 10z m-58 97c2 0 5 0 8 0 2 0 5 0 8 0 7 0 13-1 17-3 4-2 6-6 6-11 0-5-2-8-6-11-4-2-10-3-19-3h-14v28z m18-50c8 0 15-1 19-4 4-2 7-6 7-12 0-7-3-11-8-14-6-2-12-4-21-4-3 0-6 1-8 1-3 0-5 0-7 0v33h18z m162 14c-2 6-5 11-9 16-4 4-9 8-15 10-6 3-12 4-19 4-7 0-14-1-19-4-6-2-11-6-15-10-5-5-8-10-10-16-3-6-4-13-4-21 0-7 1-14 4-21 2-6 5-11 9-16 4-4 9-8 15-10 6-3 13-4 20-4 7 0 13 1 19 4 6 2 11 6 15 10 4 5 7 10 10 16 2 7 3 14 3 21 0 8-1 15-4 21z m-29-41c-3-5-8-7-14-7-7 0-11 2-15 7-3 5-5 12-5 20 0 9 2 15 5 20 4 5 8 7 15 7 6 0 11-2 14-7 3-5 5-11 5-20 0-8-2-15-5-20z m70 68h-30c6-8 11-15 17-23 5-8 11-16 17-25-3-3-7-7-10-12-4-4-7-8-10-13-3-4-6-8-8-13-3-4-5-7-6-10h28c1 2 2 5 4 8 2 2 3 5 5 8 2 3 4 5 5 7 2 2 4 4 6 5 2-1 4-3 6-5 2-2 4-5 6-8 2-3 3-6 5-8 1-3 2-6 3-7h30c-4 6-9 14-15 23-6 9-12 17-20 26l33 47h-28l-19-27-19 27z m96-75c-5 1-10 2-15 4l-4-22c2-1 6-2 12-4 5-1 12-2 21-2 13 0 23 3 30 7 7 5 11 12 11 22 0 4 0 8-1 11-1 3-3 5-5 8-2 2-5 5-9 7-4 2-9 4-15 7-3 1-6 2-7 3-2 0-4 1-5 2-1 1-2 2-2 3-1 0-1 1-1 3 0 4 5 7 13 7 5 0 9-1 13-2 3 0 7-1 10-2l5 21c-3 1-8 2-13 3-5 1-11 2-17 2-12 0-21-3-28-8-6-5-10-13-10-22 0-4 1-8 2-12 2-3 4-6 6-8 2-2 5-5 9-6 3-2 7-4 12-5 5-2 9-4 12-6 3-1 4-3 4-6 0-2-1-4-3-5-2-1-6-2-11-2-5 0-9 1-14 2z m74 7c2-6 5-12 9-16 4-5 9-8 15-11 7-3 14-4 23-4 6 0 11 1 16 2 5 1 9 2 12 3l-4 22c-3-1-7-2-10-3-4 0-8 0-11 0-9 0-16 2-20 7-3 4-5 11-5 20 0 8 2 15 6 20 4 5 10 7 18 7 4 0 7 0 10-1 3-1 6-1 8-2l6 21c-4 2-8 3-12 4-5 1-9 2-14 2-8 0-15-2-21-4-6-3-12-7-16-11s-7-10-10-16c-2-7-3-13-3-20 0-7 1-14 3-20z m156 67c-2 0-3 1-5 1s-5 1-7 1c-2 0-4 1-6 1-2 0-4 0-5 0-8 0-16-1-22-2-7-2-13-3-18-5v-91h28v73c1 1 3 1 5 1 2 1 4 1 6 1 4 0 7 0 11-1 3-1 6-1 8-2l5 23z m11-68c2-6 5-11 10-16 4-4 9-8 16-10 6-3 14-4 22-4 4 0 7 0 10 1 4 0 7 0 10 1 3 1 6 1 8 2 3 1 5 1 6 2l-4 22c-3-1-7-2-11-3-5-1-10-1-15-1-8 0-14 1-19 5-4 3-7 7-8 13h62c0 1 1 3 1 5 0 2 0 4 0 5 0 16-4 29-12 37-8 9-19 13-33 13-5 0-11-1-17-4-5-2-10-5-14-9-5-5-8-10-11-16-3-7-4-14-4-23 0-7 1-14 3-20z m25 31c1 2 1 4 2 7 1 2 2 4 3 5 2 2 4 4 6 5 2 1 5 1 8 1 3 0 6 0 8-1 2-2 4-3 5-5 2-1 3-3 3-6 1-2 1-4 1-6h-36z m82-31c2-6 6-11 10-16 4-4 9-8 16-10 6-3 14-4 22-4 4 0 7 0 11 1 3 0 6 0 9 1 3 1 6 1 8 2 3 1 5 1 6 2l-3 22c-3-1-7-2-12-3-5-1-10-1-15-1-8 0-14 1-19 5-4 3-7 7-8 13h62c1 1 1 3 1 5 0 2 0 4 0 5 0 16-4 29-12 37-8 9-19 13-32 13-6 0-12-1-18-4-5-2-10-5-14-9-5-5-8-10-11-16-2-7-4-14-4-23 0-7 1-14 3-20z m25 31c1 2 1 4 2 7 1 2 2 4 4 5 1 2 3 4 5 5 2 1 5 1 8 1 3 0 6 0 8-1 2-2 4-3 5-5 2-1 3-3 3-6 1-2 1-4 2-6h-37z m84-58h27v74c2 0 4 1 6 1 3 0 5 0 7 0 6 0 10-2 13-5 2-4 3-10 3-19v-51h27v54c0 7 0 13-2 18-1 6-3 10-6 14-4 4-8 7-13 9-6 2-13 3-21 3-8 0-16 0-23-1-7-2-13-3-18-4v-93z" horiz-adv-x="1714" />

<glyph glyph-name="logo-brand-outline-top" unicode="&#xe814;" d="M797 321l0 0c-6 0-12 1-18 2l-284 71c-5 2-10 4-14 8-3 3-7 7-9 12-2 4-4 9-5 14-2 5-2 11-2 16v150c0 5 0 11 2 16 1 5 3 10 5 14 2 5 6 9 9 12 4 4 9 7 14 8l284 71c9 2 19 2 28 1 9-1 17-5 25-10 7-5 13-12 18-20 4-8 6-18 6-28v-278c0-10-2-20-6-28-5-8-11-15-18-20-8-5-16-9-25-10-4 0-7-1-10-1z m0 366c-4 0-7 0-11-1l-284-71c0 0 0 0-1-1-1 0-2-2-3-4-1-2-2-5-3-7-1-3-1-6-1-9v-150c0-3 0-6 1-9 1-2 2-5 3-7 1-2 2-4 3-4 1-1 1-1 1-1l284-71c4-1 7-1 11-1l0 0c2 0 3 0 5 0 5 1 9 2 13 5 4 2 7 6 9 10 2 4 3 9 3 14v278c0 6-1 10-3 15-2 3-5 7-9 9-4 3-8 4-13 5-2 0-3 0-5 0z m147-366c-4 0-7 1-10 1-10 1-18 5-25 10-8 5-14 12-19 20-4 8-6 18-6 28v278c0 10 2 20 6 28 5 8 11 15 19 20 7 5 15 9 25 10 8 1 18 1 27-1l284-71c5-1 10-4 14-8 4-3 7-7 9-12 3-4 4-9 6-14 1-5 2-11 2-16v-150c0-5-1-11-2-16-2-5-3-10-6-14-2-5-5-9-9-12-4-4-9-6-14-8l-284-71c-6-1-12-2-17-2z m0 366c-2 0-4 0-6 0-5-1-9-2-13-5-4-2-6-6-8-9-3-5-4-9-4-15v-278c0-5 1-10 4-14 2-4 4-8 8-10 4-3 8-4 13-5 5-1 10 0 16 1l284 71c0 0 0 0 1 1 1 0 2 2 3 4 2 2 2 5 3 7 1 3 1 6 1 9v150c0 3 0 6-1 9-1 3-1 5-3 7-1 2-2 4-3 4-1 1-1 1-1 1l-284 71c-4 1-7 1-10 1z m-578-704c-8 0-17 0-25 1-9 0-18 2-27 4v151c7 2 15 3 24 3 8 1 16 1 24 1 10 0 19 0 27-2 8-1 16-4 22-7 6-4 10-8 14-14 3-5 5-12 5-21 0-12-6-22-18-29 10-4 16-9 20-16 4-6 5-13 5-21 0-17-6-29-18-37-12-9-29-13-53-13z m-18 97h17c11 0 19 2 24 4 4 3 7 8 7 14 0 6-3 10-8 13-4 3-11 4-21 4-3 0-6 0-9 0-4 0-7 0-10-1v-34z m0-27v-40c3 0 6 0 9-1 3 0 6 0 10 0 10 0 19 2 25 5 6 3 10 8 10 16 0 8-3 13-8 16-6 3-14 4-24 4h-22z m226-8c0-10-1-18-4-26-3-8-7-14-12-20-5-5-11-9-18-12s-15-5-24-5c-9 0-17 2-24 5-7 3-13 7-18 12-5 6-9 12-12 20-3 8-4 16-4 26 0 9 1 18 4 25s7 14 12 20c5 5 12 9 19 12s15 5 23 5c9 0 16-2 24-5 7-3 13-7 18-12 5-6 9-12 12-20 3-7 4-16 4-25z m-34 0c0 10-2 18-6 24-4 6-10 9-18 9-8 0-14-3-18-9-4-6-6-14-6-24 0-11 2-19 6-25 4-6 10-9 18-9 8 0 14 3 18 9 4 6 6 14 6 25z m103 26l23 33h35l-41-58c9-11 18-21 25-32 7-11 13-20 18-29h-36c-1 2-3 5-5 9-2 3-4 7-6 10-2 4-4 7-7 10s-5 5-7 7c-2-2-5-4-7-7-2-2-5-5-7-9-2-3-4-7-6-10-2-4-4-7-5-10h-35c2 4 5 8 8 13 3 6 6 11 10 17 4 5 8 10 12 15 4 6 9 10 13 15-8 10-15 21-21 30-7 10-14 19-21 29h37l23-33z m112-62c6 0 10 1 13 2 2 1 4 4 4 7 0 3-2 5-5 7-4 2-9 5-15 7-6 2-10 4-15 6-4 2-8 5-11 8-3 3-5 6-7 10-1 4-2 9-2 15 0 11 4 20 12 26 9 7 20 10 34 10 8 0 15-1 21-2 7-1 12-3 16-4l-6-26c-4 1-8 2-13 3-4 1-9 2-15 2-11 0-16-3-16-9 0-1 0-2 1-3 0-1 1-3 2-3 2-1 4-3 6-4 2-1 5-2 9-3 7-3 13-6 18-8 5-3 9-6 12-9 2-3 4-7 5-10 2-4 2-8 2-13 0-12-4-21-13-27-9-6-21-9-37-9-11 0-20 1-27 3-7 2-11 3-14 4l5 28c6-3 12-4 18-6s12-2 18-2z m69 36c0 8 2 16 5 24 2 7 6 14 12 20 5 5 11 10 19 13 7 3 16 5 26 5 6 0 12-1 17-2 5-1 10-2 15-5l-7-26c-3 1-6 2-10 3-4 1-8 1-13 1-10 0-17-3-22-9-5-6-7-14-7-24 0-11 2-19 7-25 4-6 12-9 24-9 4 0 8 0 13 1 4 1 9 2 12 4l5-28c-4-2-9-3-14-4-6-1-13-2-20-2-11 0-20 2-28 5-8 3-14 8-19 13-5 6-9 12-11 20-2 7-4 16-4 25z m190 29c-3 1-6 2-10 2-4 1-9 2-13 2-3 0-5 0-8-1-3 0-5-1-7-1v-91h-33v113c6 2 13 4 21 6 8 1 17 2 27 2 2 0 4 0 7 0 3 0 5-1 8-1 2 0 5-1 7-1 3-1 5-1 7-2l-6-28z m16-30c0 10 2 19 5 27 3 8 7 15 13 20 5 5 11 9 18 12 7 3 14 4 21 4 17 0 30-5 40-15 9-11 14-26 14-46 0-2 0-4 0-6 0-3 0-5 0-6h-77c1-7 4-13 10-17 6-4 14-6 23-6 6 0 12 1 18 2 6 1 11 2 15 4l4-28c-1 0-4-1-7-2-3-1-6-2-10-3-4 0-8-1-12-1-4-1-8-1-12-1-11 0-20 2-28 5-8 3-15 7-20 13-5 5-9 12-11 19-3 8-4 16-4 25z m79 13c0 2-1 5-2 8 0 3-2 5-3 7-2 2-4 4-7 5-3 2-6 2-10 2-4 0-7 0-9-2-3-1-5-3-7-5-2-2-3-4-4-7-1-3-2-6-3-8h45z m53-13c0 10 1 19 4 27 4 8 8 15 13 20 5 5 11 9 18 12 7 3 14 4 21 4 17 0 30-5 40-15 10-11 15-26 15-46 0-2 0-4 0-6 0-3-1-5-1-6h-76c1-7 4-13 10-17 5-4 13-6 23-6 6 0 12 1 18 2 6 1 11 2 14 4l5-28c-2 0-4-1-7-2-3-1-7-2-10-3-4 0-8-1-12-1-4-1-9-1-13-1-10 0-20 2-28 5-8 3-14 7-19 13-5 5-9 12-12 19-2 8-3 16-3 25z m78 13c0 2 0 5-1 8-1 3-2 5-4 7-2 2-4 4-6 5-3 2-6 2-10 2-4 0-7 0-10-2-3-1-5-3-7-5-1-2-3-4-4-7-1-3-2-6-2-8h44z m59 43c6 1 13 3 22 4 9 2 18 3 28 3 10 0 19-2 25-4 7-3 12-7 16-12 4-4 7-10 9-17 1-6 2-14 2-22v-67h-33v63c0 11-2 19-5 23-3 5-8 7-16 7-2 0-5 0-7 0-3-1-6-1-8-1v-92h-33v115z" horiz-adv-x="1714" />

<glyph glyph-name="delete" unicode="&#xe815;" d="M966 653l-303-303 303-303c45-45 45-118 0-163-22-23-52-34-81-34-30 0-59 11-82 34l-303 303-303-303c-23-23-52-34-82-34-29 0-59 11-81 34-45 45-45 118 0 163l303 303-303 303c-45 45-45 118 0 163 45 45 118 45 163 0l303-303 303 303c45 45 118 45 163 0 45-45 45-118 0-163z" horiz-adv-x="1000" />

<glyph glyph-name="ellipsis-horizontal" unicode="&#xe816;" d="M125 475c-69 0-125-56-125-125s56-125 125-125 125 56 125 125-56 125-125 125z m750 0c-69 0-125-56-125-125s56-125 125-125 125 56 125 125-56 125-125 125z m-375 0c-69 0-125-56-125-125s56-125 125-125 125 56 125 125-56 125-125 125z" horiz-adv-x="1000" />

<glyph glyph-name="ellipsis-horizontal-outline" unicode="&#xe817;" d="M979 350c0 67-55 121-122 121s-121-54-121-121 54-121 121-121 122 54 122 121z m-122-71c-39 0-71 32-71 71s32 71 71 71 72-32 72-71-32-71-72-71z m-378 192c-67 0-122-54-122-121s55-121 122-121 121 54 121 121-54 121-121 121z m0-192c-40 0-72 32-72 71s32 71 72 71 71-32 71-71-32-71-71-71z m757 192c-67 0-122-54-122-121s55-121 122-121 121 54 121 121-54 121-121 121z m0-192c-40 0-72 32-72 71s32 71 72 71 71-32 71-71-32-71-71-71z" horiz-adv-x="1714" />

<glyph glyph-name="ellipsis-vertical-outline" unicode="&#xe818;" d="M857 583c74 0 134 60 134 134s-60 133-134 133-133-60-133-133 60-134 133-134z m0 234c55 0 100-45 100-100 0-55-45-100-100-100s-100 45-100 100c0 55 45 100 100 100z m0-700c-73 0-133-60-133-134 0-73 60-133 133-133s134 60 134 133c0 74-60 134-134 134z m0-234c-55 0-100 45-100 100 0 56 45 100 100 100s100-44 100-100c0-55-45-100-100-100z m0 600c-73 0-133-59-133-133 0-73 60-133 133-133s134 60 134 133c0 74-60 133-134 133z m0-233c-55 0-100 45-100 100s45 100 100 100 100-45 100-100-45-100-100-100z" horiz-adv-x="1714" />

<glyph glyph-name="ellipsis-vertical" unicode="&#xe819;" d="M500 600c69 0 125 56 125 125s-56 125-125 125-125-56-125-125 56-125 125-125z m0-125c-69 0-125-56-125-125s56-125 125-125 125 56 125 125-56 125-125 125z m0-375c-69 0-125-56-125-125s56-125 125-125 125 56 125 125-56 125-125 125z" horiz-adv-x="1000" />

<glyph glyph-name="eye" unicode="&#xe81a;" d="M858 471c-67 0-121-54-121-121 0-9 8-17 17-17 10 0 17 8 17 17 0 48 39 86 87 86 9 0 17 8 17 18 0 9-8 17-17 17z m494-102c-131 132-306 205-493 205 0 0-1 0-1 0 0 0 0 0 0 0-1 0-1 0-2 0-185 0-359-73-490-205l-4-4c-7-7-6-18 0-24 4-4 8-5 12-5 5 0 9 1 13 5l4 4c90 91 203 153 326 179-51-41-84-104-84-174 0-124 101-224 225-224 123 0 224 100 224 224 0 71-33 134-85 175 125-26 239-88 331-180 6-7 17-7 24 0 7 6 7 17 0 24z m-304-19c0-105-86-190-190-190s-190 85-190 190c0 104 84 189 188 190 1 0 2 0 2 0 105 0 190-85 190-190z" horiz-adv-x="1714" />
</font>
</defs>
</svg>
